<?xml version="1.0" encoding="utf-8"?>
<!DOCTYPE svg PUBLIC "-//W3C//DTD SVG 1.1//EN" "http://www.w3.org/Graphics/SVG/1.1/DTD/svg11.dtd">
<svg xmlns="http://www.w3.org/2000/svg" xml:space="preserve" viewBox="0 0 562 548">
  <radialGradient id="a" cx="27.2407" cy="25.0833" r="702.7548" gradientUnits="userSpaceOnUse">
    <stop offset="0" stop-color="#3a2c22"/>
    <stop offset=".01408249" stop-color="#392b21"/>
    <stop offset=".2894" stop-color="#2c1b11"/>
    <stop offset=".5967" stop-color="#241107"/>
    <stop offset="1" stop-color="#220e04"/>
  </radialGradient>
  <path fill="url(#a)" d="M12 12h538v524H12z"/>
  <path fill="#FF7719" d="M538 24v500H24V24h514m24-24H0v548h562V0z"/>
  <path fill="#FF7719" stroke="#000" d="m191.4 299.8-31 85.2c-.8 2.1-1.7 2.9-3.7 2.9h-31.8c-2.1 0-2.9-1.2-2.1-3.3 24.4-65.7 65.7-176.9 93.4-249.3 1.2-3.3 2.5-6.6 2.9-18.2 0-1.7 1.2-2.5 2.5-2.5H265c1.7 0 2.1.4 2.5 2.1 33.5 88.5 67 179 100.5 267.9.8 2.1.4 3.3-1.7 3.3H332c-1.7 0-2.9-.8-3.3-2.5l-32.2-85.6H191.4zm96-30.2c-9.1-27.3-35.6-96.7-43.8-124.4h-.4c-6.6 25.6-26.9 79-42.6 124.4h86.8zm115.5-82.8c0-8.6 6.5-14.8 15.7-14.8 9.4 0 15.4 6.2 15.4 14.8 0 8.6-6.2 14.5-15.6 14.5-9.3-.1-15.5-6-15.5-14.5zm2.1 60.8c0-1.5.6-2.1 1.8-2.1h23c1.5 0 2.1.3 2.1 1.8v138.5c0 1.5-.6 2.1-2.1 2.1h-22.4c-1.8 0-2.4-.6-2.4-2.4V247.6z"/>
</svg>